<svg width="2387" height="370" viewBox="0 0 2387 370" fill="none" xmlns="http://www.w3.org/2000/svg">
<rect x="108.948" y="263.114" width="71.6109" height="13.9453" fill="#2A2D33" stroke="#2A2D33" stroke-linejoin="round"/>
<path d="M397.539 356.772C393.412 357.652 392.872 360.803 393.118 362.268L397.539 365.566H488.916C494.812 365.566 497.391 367.764 499.233 362.268C505.718 339.698 501.935 325.994 499.233 321.964C501.69 320.498 507.266 316.028 509.918 309.873C513.235 302.178 505.865 288.255 501.812 281.293C497.759 274.332 501.076 263.706 504.023 261.141C506.971 258.576 511.761 241.722 499.233 253.813C486.706 265.904 490.022 277.263 495.549 285.69C501.076 294.117 506.234 304.01 504.023 309.873C502.255 314.563 497.637 316.957 495.549 317.567C485.969 313.17 477.126 309.506 462.388 309.873C450.597 310.166 436.596 321.964 431.069 327.826C430.455 325.14 428.932 319.985 427.753 320.865C426.574 321.744 425.051 326.361 424.437 328.559C422.373 327.68 418.418 328.193 416.699 328.559C415.225 323.796 406.382 320.498 408.224 321.964C410.067 323.43 410.067 331.124 409.698 333.323C409.33 335.521 406.014 339.918 401.592 343.215C398.055 345.854 397.416 353.353 397.539 356.772Z" fill="#2A2D33"/>
<path d="M414.11 334.225L410.721 335.549H413.733L417.499 337.756L414.11 334.225Z" fill="white"/>
<path d="M424.278 335.108L419.006 337.756L424.278 336.873L429.55 337.756L424.278 335.108Z" fill="white"/>
<path d="M219.701 258.115L207.126 321.269L226.359 325.987L258.907 265.011L234.866 248.315L219.701 258.115Z" fill="#2A2D33" stroke="#2A2D33" stroke-linecap="round" stroke-linejoin="round"/>
<path d="M217.717 98.8555H235.659C237.246 98.8555 238.833 102.778 240.42 102.778C247.032 102.778 255.11 104.708 261.722 103.563C264.386 103.102 265.585 98.8555 268.248 98.8555C353.76 98.8555 401.704 98.8555 487.216 98.8555V108.27H217.717V98.8555Z" fill="#C4C4C4"/>
<path d="M219.217 100.355H235.562C235.603 100.38 235.691 100.44 235.83 100.568C236.132 100.848 236.458 101.246 236.873 101.76L236.908 101.803C237.279 102.262 237.733 102.824 238.21 103.265C238.662 103.685 239.424 104.278 240.42 104.278C242.838 104.278 245.441 104.543 248.183 104.822C249.085 104.914 250.002 105.008 250.933 105.094C254.615 105.434 258.46 105.65 261.978 105.041C263.017 104.861 263.838 104.323 264.479 103.761C265.05 103.262 265.566 102.662 265.997 102.16C266.039 102.111 266.08 102.063 266.121 102.016C266.615 101.443 267.004 101.014 267.392 100.717C267.755 100.439 268.015 100.355 268.248 100.355H268.749H269.249H269.748H270.246H270.743H271.239H271.735H272.229H272.723H273.216H273.708H274.2H274.69H275.18H275.669H276.157H276.645H277.131H277.617H278.102H278.586H279.069H279.552H280.033H280.514H280.995H281.474H281.953H282.431H282.908H283.384H283.86H284.335H284.809H285.282H285.755H286.227H286.698H287.168H287.638H288.107H288.575H289.043H289.51H289.976H290.441H290.906H291.37H291.833H292.296H292.758H293.219H293.679H294.139H294.598H295.057H295.515H295.972H296.428H296.884H297.339H297.794H298.248H298.701H299.154H299.605H300.057H300.507H300.957H301.407H301.856H302.304H302.751H303.198H303.645H304.09H304.535H304.98H305.424H305.867H306.31H306.752H307.193H307.634H308.075H308.515H308.954H309.392H309.831H310.268H310.705H311.142H311.577H312.013H312.448H312.882H313.315H313.749H314.181H314.613H315.045H315.476H315.907H316.337H316.766H317.195H317.624H318.052H318.479H318.906H319.333H319.759H320.184H320.61H321.034H321.458H321.882H322.305H322.728H323.15H323.572H323.993H324.414H324.835H325.255H325.674H326.093H326.512H326.93H327.348H327.766H328.183H328.599H329.016H329.431H329.847H330.262H330.676H331.09H331.504H331.918H332.331H332.743H333.155H333.567H333.979H334.39H334.801H335.211H335.621H336.031H336.44H336.849H337.258H337.666H338.074H338.482H338.889H339.296H339.702H340.109H340.515H340.92H341.326H341.731H342.135H342.54H342.944H343.348H343.751H344.155H344.558H344.96H345.363H345.765H346.167H346.568H346.97H347.371H347.772H348.172H348.572H348.972H349.372H349.772H350.171H350.57H350.969H351.368H351.766H352.164H352.562H352.96H353.358H353.755H354.152H354.549H354.946H355.342H355.739H356.135H356.531H356.927H357.322H357.718H358.113H358.508H358.903H359.298H359.692H360.087H360.481H360.875H361.269H361.663H362.057H362.45H362.844H363.237H363.63H364.024H364.417H364.809H365.202H365.595H365.987H366.38H366.772H367.164H367.557H367.949H368.341H368.733H369.124H369.516H369.908H370.299H370.691H371.083H371.474H371.865H372.257H372.648H373.039H373.43H373.822H374.213H374.604H374.995H375.386H375.777H376.168H376.559H376.95H377.341H377.732H378.123H378.514H378.905H379.296H379.687H380.078H380.469H380.86H381.251H381.642H382.034H382.425H382.816H383.207H383.599H383.99H384.381H384.773H385.164H385.556H385.948H386.34H386.731H387.123H387.515H387.907H388.299H388.692H389.084H389.477H389.869H390.262H390.654H391.047H391.44H391.833H392.227H392.62H393.013H393.407H393.801H394.195H394.589H394.983H395.377H395.772H396.166H396.561H396.956H397.351H397.746H398.142H398.537H398.933H399.329H399.725H400.122H400.518H400.915H401.312H401.709H402.106H402.504H402.902H403.3H403.698H404.096H404.495H404.894H405.293H405.692H406.092H406.491H406.892H407.292H407.692H408.093H408.494H408.896H409.297H409.699H410.101H410.504H410.906H411.309H411.713H412.116H412.52H412.924H413.328H413.733H414.138H414.544H414.949H415.355H415.762H416.168H416.575H416.982H417.39H417.798H418.206H418.615H419.024H419.433H419.843H420.253H420.663H421.074H421.485H421.897H422.308H422.721H423.133H423.546H423.96H424.374H424.788H425.202H425.617H426.033H426.448H426.865H427.281H427.698H428.116H428.533H428.952H429.37H429.79H430.209H430.629H431.05H431.471H431.892H432.314H432.736H433.159H433.582H434.006H434.43H434.854H435.279H435.705H436.131H436.558H436.985H437.412H437.84H438.269H438.698H439.127H439.557H439.988H440.419H440.851H441.283H441.715H442.148H442.582H443.016H443.451H443.887H444.322H444.759H445.196H445.633H446.071H446.51H446.949H447.389H447.83H448.27H448.712H449.154H449.597H450.04H450.484H450.929H451.374H451.819H452.266H452.713H453.16H453.608H454.057H454.506H454.956H455.407H455.858H456.31H456.763H457.216H457.67H458.125H458.58H459.036H459.492H459.949H460.407H460.865H461.325H461.785H462.245H462.706H463.168H463.631H464.094H464.558H465.023H465.488H465.954H466.421H466.889H467.357H467.826H468.296H468.766H469.237H469.709H470.182H470.655H471.129H471.604H472.08H472.556H473.033H473.511H473.99H474.469H474.949H475.43H475.912H476.395H476.878H477.362H477.847H478.333H478.819H479.307H479.795H480.284H480.773H481.264H481.755H482.248H482.741H483.235H483.729H484.225H484.721H485.218H485.716V106.77H219.217V100.355Z" fill="#C4C4C4" stroke="#2A2D33" stroke-width="3"/>
<path d="M219.217 100.355H235.562C235.603 100.38 235.691 100.44 235.83 100.568C236.132 100.848 236.458 101.246 236.873 101.76L236.908 101.803C237.279 102.262 237.733 102.824 238.21 103.265C238.662 103.685 239.424 104.278 240.42 104.278C242.838 104.278 245.441 104.543 248.183 104.822C249.085 104.914 250.002 105.008 250.933 105.094C254.615 105.434 258.46 105.65 261.978 105.041C263.017 104.861 263.838 104.323 264.479 103.761C265.05 103.262 265.566 102.662 265.997 102.16C266.039 102.111 266.08 102.063 266.121 102.016C266.615 101.443 267.004 101.014 267.392 100.717C267.755 100.439 268.015 100.355 268.248 100.355H268.749H269.249H269.748H270.246H270.743H271.239H271.735H272.229H272.723H273.216H273.708H274.2H274.69H275.18H275.669H276.157H276.645H277.131H277.617H278.102H278.586H279.069H279.552H280.033H280.514H280.995H281.474H281.953H282.431H282.908H283.384H283.86H284.335H284.809H285.282H285.755H286.227H286.698H287.168H287.638H288.107H288.575H289.043H289.51H289.976H290.441H290.906H291.37H291.833H292.296H292.758H293.219H293.679H294.139H294.598H295.057H295.515H295.972H296.428H296.884H297.339H297.794H298.248H298.701H299.154H299.605H300.057H300.507H300.957H301.407H301.856H302.304H302.751H303.198H303.645H304.09H304.535H304.98H305.424H305.867H306.31H306.752H307.193H307.634H308.075H308.515H308.954H309.392H309.831H310.268H310.705H311.142H311.577H312.013H312.448H312.882H313.315H313.749H314.181H314.613H315.045H315.476H315.907H316.337H316.766H317.195H317.624H318.052H318.479H318.906H319.333H319.759H320.184H320.61H321.034H321.458H321.882H322.305H322.728H323.15H323.572H323.993H324.414H324.835H325.255H325.674H326.093H326.512H326.93H327.348H327.766H328.183H328.599H329.016H329.431H329.847H330.262H330.676H331.09H331.504H331.918H332.331H332.743H333.155H333.567H333.979H334.39H334.801H335.211H335.621H336.031H336.44H336.849H337.258H337.666H338.074H338.482H338.889H339.296H339.702H340.109H340.515H340.92H341.326H341.731H342.135H342.54H342.944H343.348H343.751H344.155H344.558H344.96H345.363H345.765H346.167H346.568H346.97H347.371H347.772H348.172H348.572H348.972H349.372H349.772H350.171H350.57H350.969H351.368H351.766H352.164H352.562H352.96H353.358H353.755H354.152H354.549H354.946H355.342H355.739H356.135H356.531H356.927H357.322H357.718H358.113H358.508H358.903H359.298H359.692H360.087H360.481H360.875H361.269H361.663H362.057H362.45H362.844H363.237H363.63H364.024H364.417H364.809H365.202H365.595H365.987H366.38H366.772H367.164H367.557H367.949H368.341H368.733H369.124H369.516H369.908H370.299H370.691H371.083H371.474H371.865H372.257H372.648H373.039H373.43H373.822H374.213H374.604H374.995H375.386H375.777H376.168H376.559H376.95H377.341H377.732H378.123H378.514H378.905H379.296H379.687H380.078H380.469H380.86H381.251H381.642H382.034H382.425H382.816H383.207H383.599H383.99H384.381H384.773H385.164H385.556H385.948H386.34H386.731H387.123H387.515H387.907H388.299H388.692H389.084H389.477H389.869H390.262H390.654H391.047H391.44H391.833H392.227H392.62H393.013H393.407H393.801H394.195H394.589H394.983H395.377H395.772H396.166H396.561H396.956H397.351H397.746H398.142H398.537H398.933H399.329H399.725H400.122H400.518H400.915H401.312H401.709H402.106H402.504H402.902H403.3H403.698H404.096H404.495H404.894H405.293H405.692H406.092H406.491H406.892H407.292H407.692H408.093H408.494H408.896H409.297H409.699H410.101H410.504H410.906H411.309H411.713H412.116H412.52H412.924H413.328H413.733H414.138H414.544H414.949H415.355H415.762H416.168H416.575H416.982H417.39H417.798H418.206H418.615H419.024H419.433H419.843H420.253H420.663H421.074H421.485H421.897H422.308H422.721H423.133H423.546H423.96H424.374H424.788H425.202H425.617H426.033H426.448H426.865H427.281H427.698H428.116H428.533H428.952H429.37H429.79H430.209H430.629H431.05H431.471H431.892H432.314H432.736H433.159H433.582H434.006H434.43H434.854H435.279H435.705H436.131H436.558H436.985H437.412H437.84H438.269H438.698H439.127H439.557H439.988H440.419H440.851H441.283H441.715H442.148H442.582H443.016H443.451H443.887H444.322H444.759H445.196H445.633H446.071H446.51H446.949H447.389H447.83H448.27H448.712H449.154H449.597H450.04H450.484H450.929H451.374H451.819H452.266H452.713H453.16H453.608H454.057H454.506H454.956H455.407H455.858H456.31H456.763H457.216H457.67H458.125H458.58H459.036H459.492H459.949H460.407H460.865H461.325H461.785H462.245H462.706H463.168H463.631H464.094H464.558H465.023H465.488H465.954H466.421H466.889H467.357H467.826H468.296H468.766H469.237H469.709H470.182H470.655H471.129H471.604H472.08H472.556H473.033H473.511H473.99H474.469H474.949H475.43H475.912H476.395H476.878H477.362H477.847H478.333H478.819H479.307H479.795H480.284H480.773H481.264H481.755H482.248H482.741H483.235H483.729H484.225H484.721H485.218H485.716V106.77H219.217V100.355Z" fill="#2A2D33" stroke="#2A2D33" stroke-width="3"/>
<path d="M219.217 100.355H235.562C235.603 100.38 235.691 100.44 235.83 100.568C236.132 100.848 236.458 101.246 236.873 101.76L236.908 101.803C237.279 102.262 237.733 102.824 238.21 103.265C238.662 103.685 239.424 104.278 240.42 104.278C242.838 104.278 245.441 104.543 248.183 104.822C249.085 104.914 250.002 105.008 250.933 105.094C254.615 105.434 258.46 105.65 261.978 105.041C263.017 104.861 263.838 104.323 264.479 103.761C265.05 103.262 265.566 102.662 265.997 102.16C266.039 102.111 266.08 102.063 266.121 102.016C266.615 101.443 267.004 101.014 267.392 100.717C267.755 100.439 268.015 100.355 268.248 100.355H268.749H269.249H269.748H270.246H270.743H271.239H271.735H272.229H272.723H273.216H273.708H274.2H274.69H275.18H275.669H276.157H276.645H277.131H277.617H278.102H278.586H279.069H279.552H280.033H280.514H280.995H281.474H281.953H282.431H282.908H283.384H283.86H284.335H284.809H285.282H285.755H286.227H286.698H287.168H287.638H288.107H288.575H289.043H289.51H289.976H290.441H290.906H291.37H291.833H292.296H292.758H293.219H293.679H294.139H294.598H295.057H295.515H295.972H296.428H296.884H297.339H297.794H298.248H298.701H299.154H299.605H300.057H300.507H300.957H301.407H301.856H302.304H302.751H303.198H303.645H304.09H304.535H304.98H305.424H305.867H306.31H306.752H307.193H307.634H308.075H308.515H308.954H309.392H309.831H310.268H310.705H311.142H311.577H312.013H312.448H312.882H313.315H313.749H314.181H314.613H315.045H315.476H315.907H316.337H316.766H317.195H317.624H318.052H318.479H318.906H319.333H319.759H320.184H320.61H321.034H321.458H321.882H322.305H322.728H323.15H323.572H323.993H324.414H324.835H325.255H325.674H326.093H326.512H326.93H327.348H327.766H328.183H328.599H329.016H329.431H329.847H330.262H330.676H331.09H331.504H331.918H332.331H332.743H333.155H333.567H333.979H334.39H334.801H335.211H335.621H336.031H336.44H336.849H337.258H337.666H338.074H338.482H338.889H339.296H339.702H340.109H340.515H340.92H341.326H341.731H342.135H342.54H342.944H343.348H343.751H344.155H344.558H344.96H345.363H345.765H346.167H346.568H346.97H347.371H347.772H348.172H348.572H348.972H349.372H349.772H350.171H350.57H350.969H351.368H351.766H352.164H352.562H352.96H353.358H353.755H354.152H354.549H354.946H355.342H355.739H356.135H356.531H356.927H357.322H357.718H358.113H358.508H358.903H359.298H359.692H360.087H360.481H360.875H361.269H361.663H362.057H362.45H362.844H363.237H363.63H364.024H364.417H364.809H365.202H365.595H365.987H366.38H366.772H367.164H367.557H367.949H368.341H368.733H369.124H369.516H369.908H370.299H370.691H371.083H371.474H371.865H372.257H372.648H373.039H373.43H373.822H374.213H374.604H374.995H375.386H375.777H376.168H376.559H376.95H377.341H377.732H378.123H378.514H378.905H379.296H379.687H380.078H380.469H380.86H381.251H381.642H382.034H382.425H382.816H383.207H383.599H383.99H384.381H384.773H385.164H385.556H385.948H386.34H386.731H387.123H387.515H387.907H388.299H388.692H389.084H389.477H389.869H390.262H390.654H391.047H391.44H391.833H392.227H392.62H393.013H393.407H393.801H394.195H394.589H394.983H395.377H395.772H396.166H396.561H396.956H397.351H397.746H398.142H398.537H398.933H399.329H399.725H400.122H400.518H400.915H401.312H401.709H402.106H402.504H402.902H403.3H403.698H404.096H404.495H404.894H405.293H405.692H406.092H406.491H406.892H407.292H407.692H408.093H408.494H408.896H409.297H409.699H410.101H410.504H410.906H411.309H411.713H412.116H412.52H412.924H413.328H413.733H414.138H414.544H414.949H415.355H415.762H416.168H416.575H416.982H417.39H417.798H418.206H418.615H419.024H419.433H419.843H420.253H420.663H421.074H421.485H421.897H422.308H422.721H423.133H423.546H423.96H424.374H424.788H425.202H425.617H426.033H426.448H426.865H427.281H427.698H428.116H428.533H428.952H429.37H429.79H430.209H430.629H431.05H431.471H431.892H432.314H432.736H433.159H433.582H434.006H434.43H434.854H435.279H435.705H436.131H436.558H436.985H437.412H437.84H438.269H438.698H439.127H439.557H439.988H440.419H440.851H441.283H441.715H442.148H442.582H443.016H443.451H443.887H444.322H444.759H445.196H445.633H446.071H446.51H446.949H447.389H447.83H448.27H448.712H449.154H449.597H450.04H450.484H450.929H451.374H451.819H452.266H452.713H453.16H453.608H454.057H454.506H454.956H455.407H455.858H456.31H456.763H457.216H457.67H458.125H458.58H459.036H459.492H459.949H460.407H460.865H461.325H461.785H462.245H462.706H463.168H463.631H464.094H464.558H465.023H465.488H465.954H466.421H466.889H467.357H467.826H468.296H468.766H469.237H469.709H470.182H470.655H471.129H471.604H472.08H472.556H473.033H473.511H473.99H474.469H474.949H475.43H475.912H476.395H476.878H477.362H477.847H478.333H478.819H479.307H479.795H480.284H480.773H481.264H481.755H482.248H482.741H483.235H483.729H484.225H484.721H485.218H485.716V106.77H219.217V100.355Z" fill="#2A2D33" stroke="#2A2D33" stroke-width="3"/>
<path d="M323.634 338.671C327.182 340.971 334.865 346.299 337.214 349.204C340.15 352.837 336.113 356.832 349.326 358.285C362.54 359.738 367.311 364.823 381.259 364.823C392.417 364.823 396.919 364.823 397.775 364.823C395.695 363.128 389.48 359.447 381.259 358.285C370.982 356.832 345.289 340.487 341.252 335.402" stroke="#2A2D33" stroke-width="3"/>
<path d="M261.39 65.8271C257.279 66.4138 254.538 69.2495 253.681 70.5941H255.517C256.985 70.5941 257.719 71.6941 257.719 73.1609C257.719 74.6276 255.517 75.361 254.783 76.4611C254.195 77.3411 255.272 77.5611 255.884 77.5611C257.107 76.8278 259.921 76.2411 261.39 79.7613C262.858 83.2815 269.343 90.0285 272.402 92.962C271.814 95.3088 268.731 98.829 267.263 100.296C268.486 102.863 271.741 108.29 274.971 109.463C279.009 110.93 283.781 102.496 284.515 99.5624C285.249 96.6289 290.755 93.3287 292.223 91.4953C293.691 89.6618 294.059 85.6283 292.223 82.3281C290.388 79.0279 288.553 76.0944 287.451 72.0608C286.35 68.0272 282.679 64.7271 277.541 64.7271C272.402 64.7271 266.529 65.0937 261.39 65.8271Z" fill="#2A2D33"/>
<path d="M120.437 264.939C103.699 262.005 98.2905 245.138 97.6787 237.07C108.691 234.259 132.183 228.123 138.056 226.07C145.397 223.503 152.004 217.269 159.346 210.669C165.219 205.389 170.113 204.557 171.826 204.802L180.268 208.102C180.635 214.825 181.37 228.783 181.37 230.837V244.404C181.37 248.804 183.817 257.972 185.04 262.005C170.48 264.205 137.175 267.872 120.437 264.939Z" fill="#2A2D33"/>
<path d="M237.53 258.338C232.245 256.578 207.431 259.072 195.685 260.538C194.584 253.449 192.528 238.024 193.116 233.037C193.703 228.05 195.073 218.247 195.685 213.969C260.289 227.17 265.06 223.136 280.11 244.037C295.16 264.939 343.979 330.942 344.713 332.776C345.301 334.243 343.245 335.098 342.144 335.343L325.259 340.11C298.219 313.586 242.816 260.098 237.53 258.338Z" fill="#2A2D33"/>
<path d="M261.39 65.8271C257.279 66.4138 254.538 69.2495 253.681 70.5941H255.517C256.985 70.5941 257.719 71.6941 257.719 73.1609C257.719 74.6276 255.517 75.361 254.783 76.4611C254.195 77.3411 255.272 77.5611 255.884 77.5611C257.107 76.8278 259.921 76.2411 261.39 79.7613C262.858 83.2815 269.343 90.0285 272.402 92.962C271.814 95.3088 268.731 98.829 267.263 100.296C268.486 102.863 271.741 108.29 274.971 109.463C279.009 110.93 283.781 102.496 284.515 99.5624C285.249 96.6289 290.755 93.3287 292.223 91.4953C293.691 89.6618 294.059 85.6283 292.223 82.3281C290.388 79.0279 288.553 76.0944 287.451 72.0608C286.35 68.0272 282.679 64.7271 277.541 64.7271C272.402 64.7271 266.529 65.0937 261.39 65.8271Z" stroke="white" stroke-linecap="round" stroke-linejoin="round"/>
<path d="M120.437 264.939C103.699 262.005 98.2905 245.138 97.6787 237.07C108.691 234.259 132.183 228.123 138.056 226.07C145.397 223.503 152.004 217.269 159.346 210.669C165.219 205.389 170.113 204.557 171.826 204.802L180.268 208.102C180.635 214.825 181.37 228.783 181.37 230.837V244.404C181.37 248.804 183.817 257.972 185.04 262.005C170.48 264.205 137.175 267.872 120.437 264.939Z" stroke="white" stroke-linecap="round" stroke-linejoin="round"/>
<path d="M237.53 258.338C232.245 256.578 207.431 259.072 195.685 260.538C194.584 253.449 192.528 238.024 193.116 233.037C193.703 228.05 195.073 218.247 195.685 213.969C260.289 227.17 265.06 223.136 280.11 244.037C295.16 264.939 343.979 330.942 344.713 332.776C345.301 334.243 343.245 335.098 342.144 335.343L325.259 340.11C298.219 313.586 242.816 260.098 237.53 258.338Z" stroke="white" stroke-linecap="round" stroke-linejoin="round"/>
<path d="M183.857 109.986C186.186 110.482 193.862 98.5604 201.807 109.986M201.807 109.986C205.035 125.329 204.057 151.528 202.844 167.707C199.818 167.855 202.151 167.663 198.462 167.256M201.807 109.986C206.527 105.017 214.202 104.993 217.449 105.602C217.732 103.617 218.304 101.043 219.005 98.2955M176.555 163.181C173.522 162.436 170.878 161.717 168.887 161.131C169.009 163.201 169.179 170.045 168.887 180.859C168.595 191.672 170.956 200.951 172.173 204.239C163.41 204.605 156.108 216.295 145.519 222.506C137.049 227.474 110.102 233.831 97.6882 236.388C97.5665 232.856 98.5645 223.382 103.53 213.738C109.737 201.682 109.372 155.286 137.487 117.658C159.978 87.555 201.383 77.7156 223.656 82.5866C223.444 83.2223 223.203 83.9608 222.94 84.7785M176.555 163.181C178.381 181.251 181.959 221.921 181.667 240.041C181.302 262.691 195.907 280.227 195.907 293.744C195.907 307.261 192.62 312.375 187.144 310.914C181.667 309.453 191.16 321.874 198.462 316.394C205.765 310.914 205.151 296.666 201.807 289.36C198.462 282.053 191.525 242.233 193.716 230.543C195.468 221.19 197.61 184.455 198.462 167.256M176.555 163.181C182.944 164.75 191.064 166.438 198.462 167.256M222.94 84.7785H234.61M222.94 84.7785C221.775 88.4109 220.201 93.6056 219.005 98.2955M219.005 98.2955C221.894 97.0777 229.133 95.2268 234.975 97.5648M255.422 77.1067C253.669 77.1067 254.205 76.1325 254.692 75.6454C256.03 74.9148 258.343 73.0151 256.882 71.2615C256.396 70.6776 255.391 70.5344 254.165 70.6455C250.789 70.9514 245.734 73.1855 245.198 73.4535C244.614 73.7457 244.955 75.0365 245.198 75.6454C239.356 77.1067 237.166 81.8559 235.705 84.0479C234.245 86.2398 231.324 89.893 231.324 91.7197C232.054 92.6939 233.733 94.9345 234.61 96.1035C235.705 97.5648 238.261 101.949 242.277 102.679C246.294 103.41 258.708 104.141 263.089 102.679C266.595 101.51 270.392 95.6164 271.852 92.8156M207.591 321.508C206.777 328.937 204.483 344.816 201.807 348.908C198.462 354.022 192.986 360.233 198.462 362.425C203.939 364.617 211.242 363.155 217.449 364.617C223.656 366.078 236.435 366.808 245.929 364.617C255.422 362.425 234.975 361.329 229.863 359.502C224.751 357.675 214.893 352.561 214.163 348.908C213.579 345.985 219.761 330.885 222.926 323.7" stroke="#2A2D33" stroke-width="3"/>
<path d="M360.509 349.412L357.763 347.955V108.27H367.177V353.055L360.509 349.412Z" fill="#2A2D33"/>
<path d="M298.92 98.8555C319.319 89.6274 362 70.3698 369.531 67.1642C378.946 63.1573 383.291 68.9856 383.654 80.6421V98.8555" stroke="#2A2D33" stroke-width="3"/>
<rect x="375.626" y="1.45675" width="66.6939" height="2.38472" transform="rotate(97.9163 375.626 1.45675)" fill="#2A2D33" stroke="#2A2D33" stroke-width="2"/>
<rect x="304.211" y="92.9617" width="66.6939" height="2.38472" transform="rotate(-24.5574 304.211 92.9617)" fill="#2A2D33" stroke="#2A2D33" stroke-width="2"/>
<path d="M469.462 361.262L469.254 362.747L469.918 359.833L469.462 361.262ZM463.505 351.29L462.012 351.148L463.505 351.29ZM489.569 339.256C490.398 339.256 491.069 338.584 491.069 337.756C491.069 336.927 490.398 336.256 489.569 336.256V339.256ZM453.572 363.407C453.316 363.318 453.02 363.185 452.756 363.025C452.48 362.857 452.315 362.705 452.241 362.606C452.181 362.527 452.253 362.588 452.229 362.727C452.211 362.833 452.179 362.719 452.541 362.422L450.638 360.102C449.958 360.66 449.42 361.359 449.272 362.219C449.119 363.111 449.437 363.867 449.84 364.405C450.573 365.384 451.814 365.971 452.586 366.24L453.572 363.407ZM452.541 362.422C452.54 362.422 452.579 362.391 452.688 362.343C452.794 362.296 452.941 362.243 453.137 362.19C453.532 362.084 454.053 361.997 454.694 361.933C455.974 361.807 457.591 361.791 459.347 361.853C462.852 361.975 466.744 362.396 469.254 362.747L469.67 359.776C467.092 359.415 463.09 358.982 459.452 358.855C457.637 358.791 455.87 358.803 454.399 358.948C453.664 359.02 452.967 359.129 452.358 359.293C451.775 359.45 451.141 359.69 450.638 360.102L452.541 362.422ZM469.918 359.833C468.133 359.264 464.489 356.788 464.998 351.432L462.012 351.148C461.329 358.328 466.323 361.835 469.007 362.691L469.918 359.833ZM464.998 351.432C465.126 350.088 466.126 348.596 468.088 347.047C470.01 345.529 472.617 344.144 475.438 342.969C478.247 341.799 481.2 340.865 483.766 340.224C486.365 339.575 488.455 339.256 489.569 339.256V336.256C488.077 336.256 485.699 336.649 483.039 337.313C480.345 337.986 477.248 338.966 474.285 340.2C471.334 341.429 468.45 342.938 466.229 344.692C464.048 346.415 462.256 348.574 462.012 351.148L464.998 351.432Z" fill="white"/>
<path d="M422.393 341.367C422.122 341.42 421.945 341.683 421.999 341.954C422.052 342.225 422.314 342.401 422.585 342.348L422.393 341.367ZM455.537 335.893C455.808 335.839 455.985 335.577 455.932 335.306C455.879 335.035 455.616 334.858 455.345 334.911L455.537 335.893ZM423.546 344.185C423.271 344.215 423.073 344.462 423.103 344.736C423.133 345.011 423.38 345.209 423.654 345.179L423.546 344.185ZM449.571 342.355C449.846 342.325 450.044 342.078 450.014 341.804C449.984 341.529 449.737 341.331 449.463 341.361L449.571 342.355ZM422.541 346.202C422.267 346.174 422.021 346.373 421.992 346.648C421.963 346.922 422.163 347.168 422.437 347.197L422.541 346.202ZM449.465 350.021C449.74 350.05 449.986 349.851 450.014 349.576C450.043 349.301 449.844 349.055 449.569 349.027L449.465 350.021ZM422.585 342.348L455.537 335.893L455.345 334.911L422.393 341.367L422.585 342.348ZM423.654 345.179L449.571 342.355L449.463 341.361L423.546 344.185L423.654 345.179ZM422.437 347.197L449.465 350.021L449.569 349.027L422.541 346.202L422.437 347.197Z" fill="white"/>
<path d="M413.075 344.64C413.627 344.64 414.075 344.192 414.075 343.64C414.075 343.088 413.627 342.64 413.075 342.64V344.64ZM381.035 332.836L412.809 341.578L413.34 339.65L381.565 330.907L381.035 332.836ZM385.906 338.232L411.031 343.276L411.424 341.315L386.3 336.271L385.906 338.232ZM384.625 344.64H413.075V342.64H384.625V344.64Z" fill="#2A2D33"/>
<rect x="112.978" y="276.56" width="4.7074" height="89.4405" fill="#2A2D33" stroke="#2A2D33" stroke-width="3" stroke-linejoin="round"/>
<rect x="149.46" y="276.56" width="5.88424" height="89.4405" fill="#2A2D33" stroke="#2A2D33" stroke-width="3" stroke-linejoin="round"/>
<rect x="171.82" y="276.56" width="4.7074" height="89.4405" fill="#2A2D33" stroke="#2A2D33" stroke-width="3" stroke-linejoin="round"/>
<rect x="415.428" y="81.2026" width="85.91" height="15.299" fill="#2A2D33" stroke="#2A2D33" stroke-linejoin="round"/>
<rect x="423.666" y="69.4341" width="74.1415" height="9.41479" fill="#2A2D33" stroke="#2A2D33" stroke-linejoin="round"/>
<rect x="415.428" y="51.7812" width="70.6109" height="15.299" fill="#2A2D33" stroke="#2A2D33" stroke-linejoin="round"/>
<rect x="423.666" y="38.8359" width="71.7878" height="10.5916" fill="#2A2D33" stroke="#2A2D33" stroke-linejoin="round"/>
<rect x="417.782" y="27.0674" width="63.5498" height="10.5916" fill="#2A2D33" stroke="#2A2D33" stroke-linejoin="round"/>
<rect x="430.728" y="16.4761" width="50.6045" height="8.23794" fill="#2A2D33" stroke="#2A2D33" stroke-linejoin="round"/>
<path d="M2386.65 366L-8.27909e-05 366" stroke="#2A2D33" stroke-width="7"/>
</svg>
