<svg width="625" height="509" viewBox="0 0 625 509" fill="none" xmlns="http://www.w3.org/2000/svg">
<path d="M303.362 39.132C302.769 40.1114 302.233 41.0531 301.756 41.9472C301.756 38.5198 302.102 34.2344 303.362 39.132C312.812 23.5113 336.706 -1.71129 369.2 3.76382C412.364 11.0368 429.45 51.0384 428.55 67.4027C421.356 74.0696 404.271 89.0399 393.48 95.5856C379.991 103.768 366.502 111.041 363.804 121.041C364.104 108.919 362.186 82.4942 352.114 73.7666C342.042 65.039 334.728 62.8571 332.33 62.8571C323.869 61.3903 306.426 55.5475 304.35 43.9107C303.971 41.7832 303.643 40.2277 303.362 39.132Z" fill="#2A2D33"/>
<path d="M283.512 202.717C282.121 201.956 280.296 201.28 278.245 200.741C273.057 207.336 268.11 214.016 264.48 219.088C290.732 233.612 342.157 262.604 348.517 268.32L340.424 273.775C329.087 271.642 301.271 268.018 280.704 270.576C279.722 270.673 278.518 270.742 277.215 270.75C272.318 270.779 266.023 269.949 264.887 266.501C263.088 261.047 250.498 239.228 246.002 234.682C245.116 233.786 244.285 233.313 243.521 233.141C243.217 233.072 242.923 233.052 242.641 233.071C240.759 233.199 239.398 235.11 238.808 236.5C239.108 237.712 239.168 240.319 237.01 241.046C234.851 241.773 228.916 241.955 226.219 241.955L219.025 242.864L171.364 222.863L225.319 188.317L263.088 218.318C263.544 218.57 264.008 218.826 264.48 219.088C268.11 214.016 273.057 207.336 278.245 200.741C286.688 190.008 295.77 179.498 300.857 176.498C307.419 172.628 295.344 188.347 283.512 202.717Z" fill="#2A2D33"/>
<path d="M49.0659 398.325C59.857 398.325 81.5626 391.052 91.0665 387.415L82.3383 409.234C83.0577 412.871 89.832 418.629 93.1293 421.053L93.3065 429.652L93.8546 456.25L94.0285 464.691C90.4315 465.903 81.0793 468.691 72.4465 470.146C61.6554 471.964 28.3831 470.146 11.2973 464.691C-5.78851 459.236 11.2973 445.6 20.2898 445.6C29.2823 445.6 49.0659 440.145 59.8569 434.69C68.4897 430.326 71.8469 419.538 72.4465 414.689H53.5622C39.1741 414.689 35.5771 398.325 49.0659 398.325Z" fill="#2A2D33"/>
<path d="M301.756 41.9472C302.955 48.008 309.13 60.6752 324.237 62.8571C343.121 65.5845 349.416 76.494 349.416 90.1309C349.416 101.04 349.416 109.223 349.416 111.95M301.756 41.9472C309.849 26.795 334.668 -2.05459 369.2 3.76382C412.364 11.0368 429.45 51.0384 428.55 67.4027C421.356 74.0696 404.271 89.0399 393.48 95.5856C379.991 103.768 366.502 111.041 363.804 121.041C364.104 108.919 362.186 82.4942 352.114 73.7666C342.042 65.039 334.728 62.8571 332.33 62.8571C323.869 61.3903 306.426 55.5475 304.35 43.9107C302.275 32.2739 301.756 37.753 301.756 41.9472ZM397.976 105.586C396.477 104.374 393.3 101.04 392.58 97.4039M366.502 152.861C365.603 151.648 363.085 148.497 360.207 145.588C356.61 141.951 391.681 110.132 402.472 103.768C413.263 97.4039 413.263 105.586 415.961 111.95C418.659 118.314 452.83 156.497 452.83 180.134C452.83 203.772 451.931 232.864 446.535 271.047M397.976 145.588C385.686 148.012 360.207 155.952 356.61 168.316C352.114 183.771 356.61 247.41 356.61 257.41M353.013 199.226C349.716 206.196 343.301 223.591 344.021 237.409M406.069 208.317C406.369 234.682 405.17 290.684 397.976 303.776C388.983 320.14 348.517 316.503 327.834 313.776C307.151 311.049 263.088 303.776 254.995 303.776C246.901 303.776 261.289 271.047 270.282 271.047C272.175 271.047 275.808 270.805 280.704 270.576M363.804 281.957C335.189 269.037 299.068 269.718 280.704 270.576M340.424 227.409C331.731 226.803 313.446 224.682 309.849 221.045C305.353 216.5 290.066 206.499 283.771 202.863C277.476 199.226 261.289 197.408 256.793 202.863C253.196 207.226 254.095 208.317 254.995 208.317M280.174 215.59C278.279 215.335 275.553 215.133 272.98 215.258M289.166 222.863C285.569 218.318 264.886 222.863 265.786 218.318C266.202 216.214 269.447 215.429 272.98 215.258M263.088 221.045C272.081 208.317 292.224 181.589 300.857 176.498C309.489 171.407 285.869 200.217 272.98 215.258M267.584 271.047C266.985 271.047 265.246 269.411 263.088 262.865C260.93 256.319 249 240.137 243.304 232.864C241.806 233.167 238.808 235.046 238.808 240.137C238.808 246.501 221.722 239.228 215.428 244.682C209.133 250.137 209.133 252.865 212.73 265.592C216.327 278.32 223.521 281.957 236.11 281.957C246.182 281.957 252.896 284.987 254.995 286.502M280.704 270.576C301.271 268.018 329.087 271.642 340.424 273.775L348.517 268.32C342.042 262.501 288.867 232.561 263.088 218.318L225.319 188.317L171.364 222.863L219.025 242.864L226.219 241.955C228.916 241.955 234.851 241.773 237.01 241.046C239.168 240.319 239.108 237.712 238.808 236.5C239.707 234.379 242.405 231.046 246.002 234.682C250.498 239.228 263.088 261.047 264.887 266.502C266.325 270.865 276.031 271.036 280.704 270.576ZM207.334 251.046C198.342 247.41 177.839 240.137 167.767 240.137C155.178 240.137 142.588 255.592 130.898 281.957C123.257 299.189 104.291 350.771 91.0665 387.415M94.0285 420.144C88.2733 418.689 84.4365 412.265 83.2375 409.234C85.4314 403.08 88.1049 395.622 91.0665 387.415M167.767 334.686C172.563 327.11 181.975 309.412 181.256 299.23L238.808 341.05M91.0665 387.415C81.5626 391.052 59.857 398.325 49.0659 398.325C35.5771 398.325 39.1741 414.689 53.5622 414.689C65.0726 414.689 70.9477 414.689 72.4465 414.689C71.8469 419.538 68.4897 430.326 59.8569 434.69C49.0659 440.145 29.2823 445.6 20.2898 445.6C11.2973 445.6 -5.78851 459.236 11.2973 464.691C28.3831 470.146 61.6554 471.964 72.4465 470.146C81.0793 468.691 90.4315 465.903 94.0285 464.691L93.1293 421.053C89.832 418.629 83.0577 412.871 82.3383 409.234L91.0665 387.415ZM204.637 317.413C198.342 320.746 184.313 328.322 178.558 331.959M174.961 336.504C169.566 335.292 155.717 336.322 143.487 350.141C128.2 367.415 104.82 396.507 96.7263 413.78C88.633 431.053 92.23 496.511 118.308 501.965C144.387 507.42 281.972 501.965 324.237 501.965C366.502 501.965 532.864 509.238 563.438 501.965C594.013 494.692 586.819 489.238 594.912 474.692C603.005 460.146 623.688 434.69 621.89 418.326C620.091 401.961 601.207 345.596 582.323 303.776C563.438 261.956 555.345 245.592 541.856 231.955C528.367 218.318 504.987 199.226 486.103 199.226C470.995 199.226 458.226 199.226 453.73 199.226M450.133 260.138C454.929 253.471 468.837 240.5 486.103 241.955M499.591 257.41C489.4 258.622 465.959 262.501 453.73 268.32C438.442 275.593 424.953 279.229 406.069 277.411M223.521 352.869C234.312 343.474 264.707 322.14 299.957 311.958M185.752 331.959C190.249 328.928 203.198 324.686 219.025 331.959" stroke="#2A2D33" stroke-width="6" stroke-linecap="round" stroke-linejoin="round"/>
<path d="M311.648 55.584C311.948 60.7357 313.626 72.3119 317.943 77.403C323.338 83.7669 317.943 100.131 317.943 103.768C317.943 107.404 329.633 102.859 332.331 107.404C335.028 111.95 341.323 131.951 349.417 126.496C355.891 122.132 365.303 109.526 369.2 103.768M366.502 126.496C367.222 130.86 366.802 134.375 366.502 135.587" stroke="#2A2D33" stroke-width="4" stroke-linecap="round" stroke-linejoin="round"/>
<path d="M546.314 438.874L545.35 417.002L565.797 449.01L546.314 438.874Z" fill="#2A2D33" stroke="#2A2D33" stroke-linecap="round" stroke-linejoin="round"/>
<path d="M587.069 436.176L586.105 414.304L568.554 448.023L587.069 436.176Z" fill="#2A2D33" stroke="#2A2D33" stroke-linecap="round" stroke-linejoin="round"/>
<path d="M568.943 418.844L556.305 419.973L565.882 434.697L579.783 408.039L564.466 400.052L546.061 411.894L568.245 410.895L568.943 418.844Z" fill="#2A2D33" stroke="#2A2D33" stroke-linecap="round" stroke-linejoin="round"/>
</svg>
