<svg width="730" height="389" viewBox="0 0 730 389" fill="none" xmlns="http://www.w3.org/2000/svg">
<path d="M420.696 133.596C425.113 133.596 430.265 138.543 432.289 141.017C427.321 141.017 425.113 138.163 421.8 137.021C419.15 136.108 416.648 137.402 415.728 138.163C415.543 136.641 416.28 133.596 420.696 133.596Z" fill="#2A2D33"/>
<path d="M411.311 81.0802C413.519 81.9935 415.175 81.4607 416.28 82.7926C416.448 82.7926 416.949 83.8466 417.484 85.6034C418.118 87.6819 418.801 90.7444 419.04 94.2092C419.592 102.201 412.967 109.051 404.686 110.763C399.265 111.884 395.027 108.357 392.437 104.506C392.293 104.292 392.154 104.077 392.02 103.862C390.885 102.033 390.122 100.187 389.781 98.7758C388.677 94.2092 390.333 86.2176 395.853 82.2218C401.374 78.2261 408.551 79.9385 411.311 81.0802Z" fill="#2A2D33"/>
<path d="M435.602 82.7926C429.86 86.9026 429.529 93.6383 430.081 96.4925C431.185 106.767 436.706 110.763 442.778 110.763C448.851 110.763 453.267 110.763 458.236 101.63C460.132 98.1443 460.581 94.825 460.196 91.9259C459.573 87.2283 456.761 83.6337 454.372 82.2218C450.507 79.9385 442.778 77.6552 435.602 82.7926Z" fill="#2A2D33"/>
<path d="M444.435 171.271C449.771 170.89 462.321 169.901 469.829 168.987C479.214 167.846 489.151 167.846 493.568 167.846L491.911 179.833C487.458 180.345 477.683 181.315 470.933 181.511V190.108H464.861V181.611C456.897 181.854 446.943 182.687 442.226 182.687L444.435 171.271Z" fill="#2A2D33"/>
<path d="M403.582 122.18C403.95 125.985 406.122 135.879 411.863 145.013C419.04 156.429 427.321 172.983 444.435 157C444.619 161.757 444.103 174.011 440.57 184.97M497.984 145.013C497.064 153.385 494.672 172.412 492.464 181.546M512.338 187.825C509.393 184.4 502.953 176.751 500.744 173.554C501.849 185.351 498.647 211.685 477.006 222.645C477.19 237.296 477.779 269.11 478.662 279.157M463.204 281.44C462.836 264.315 461.769 228.582 460.444 222.645C459.892 221.503 428.977 217.508 432.289 177.55C429.713 179.452 423.788 184.171 420.696 187.825M448.299 226.641C440.202 226.26 422.794 218.649 417.936 191.25C412.967 189.157 400.16 186.226 388.677 191.25C380.948 189.918 361.515 189.765 345.616 199.812C325.742 212.37 327.398 224.357 327.398 228.924M322.982 237.486C319.301 236.345 309.732 235.431 300.9 240.911C292.067 246.391 291.699 253.85 292.619 256.895M281.578 264.315C275.321 266.979 261.814 275.389 257.839 287.719C252.871 303.131 253.423 320.827 260.047 335.098C266.672 349.368 272.745 357.931 294.275 359.072C315.805 360.214 367.699 361.356 386.468 348.227M339.544 281.44C348.377 278.776 367.588 274.248 373.771 277.444C381.5 281.44 390.885 292.857 391.437 299.136M87.9839 335.098H143.803M725.984 335.098H663.601M420.696 289.432C421.8 298.375 423.677 318.772 422.352 328.819M378.188 302.561C390.333 300.848 419.813 296.624 440.57 293.427C466.517 289.432 486.391 282.011 509.577 287.719C532.764 293.427 546.565 295.711 547.117 299.136C547.559 301.876 547.301 309.791 547.117 313.406M536.628 317.402C537.732 315.69 539.83 311.123 539.388 306.556M465.965 317.402C449.955 321.969 415.286 332.586 404.686 338.523C391.437 345.943 394.749 352.223 406.895 348.227C416.611 345.03 422.72 342.328 424.56 341.377C431.001 345.373 446.753 353.022 458.236 351.652C472.589 349.939 478.662 351.652 483.631 343.66C487.495 344.421 496.218 345.487 500.192 343.66M472.037 317.402C475.166 322.349 484.514 330.759 496.88 324.823C512.338 317.402 521.171 313.977 527.243 315.69C533.316 317.402 536.076 320.827 550.982 311.694C562.906 304.387 568.095 303.702 569.2 304.273M534.42 352.793C527.059 352.413 510.461 351.88 502.953 352.793C501.48 348.988 498.536 338.066 498.536 324.823M543.805 352.793C550.43 355.838 569.31 361.47 591.834 359.643C619.989 357.36 653.664 354.506 656.425 339.664C659.185 324.823 659.737 305.986 653.664 295.14C647.592 284.294 639.311 275.732 635.446 270.024C631.582 264.315 628.27 260.319 622.749 261.461M509.577 198.099C508.289 206.472 501.738 223.901 485.839 226.641M618.885 252.328C617.045 243.195 612.15 222.987 607.292 215.224C601.219 205.52 591.282 195.245 569.2 190.108C547.117 184.97 539.941 180.395 518.41 190.108M417.384 143.3C418.672 144.442 422.904 146.497 429.529 145.584M401.374 69.6637C403.214 68.3318 408.661 65.7821 415.728 66.2387M437.81 66.2387C440.754 65.2874 448.299 64.6404 454.924 69.6637M420.696 95.3508C420.144 98.5855 418.157 105.74 414.623 108.48C410.207 111.905 407.999 115.33 417.936 118.755M542.701 145.013C510.902 148.209 484.551 145.203 475.35 143.3C487.274 119.097 486.575 79.9385 484.735 60.5304C481.054 60.1499 468.173 60.5304 452.163 57.6763C445.312 56.455 436.706 53.4144 425.113 53.1097C413.519 52.805 409.376 56.3014 403.582 55.9639C405.606 39.0294 421.579 4.93204 469.277 4.01872C528.899 2.87707 536.076 54.2514 540.493 74.8011C544.909 95.3508 547.669 129.03 547.117 143.3M483.079 60.1595C483.263 77.4746 480.76 111.448 469.277 125.605M409.103 59.3888C407.631 61.1013 404.797 67.152 405.238 77.6552M484.183 91.9259C479.03 91.9259 466.848 91.9259 459.34 91.9259M417.384 85.6468C419.408 84.6954 425.775 86.7884 430.633 89.0717M378.74 135.879C378.74 119.896 389.965 108.29 393.645 101.059C390.517 109.621 384.371 129.6 384.812 141.017C387.389 140.256 395.081 139.19 405.238 141.017M232.766 335.098H257.839M432.289 141.017C430.265 138.543 425.113 133.596 420.696 133.596C416.28 133.596 415.543 136.641 415.728 138.163C416.648 137.402 419.15 136.108 421.8 137.021C425.113 138.163 427.321 141.017 432.289 141.017ZM416.28 82.7926C415.175 81.4607 413.519 81.9935 411.311 81.0802C408.551 79.9385 401.374 78.2261 395.853 82.2218C390.333 86.2176 388.677 94.2092 389.781 98.7758C390.885 103.342 396.406 112.476 404.686 110.763C412.967 109.051 419.592 102.201 419.04 94.2092C418.598 87.8159 416.648 82.7926 416.28 82.7926ZM430.081 96.4925C429.529 93.6383 429.86 86.9026 435.602 82.7926C442.778 77.6552 450.507 79.9385 454.372 82.2218C458.236 84.5051 463.205 92.4967 458.236 101.63C453.267 110.763 448.851 110.763 442.778 110.763C436.706 110.763 431.185 106.767 430.081 96.4925ZM444.435 171.271C449.771 170.89 462.321 169.901 469.829 168.987C479.214 167.846 489.151 167.846 493.568 167.846L491.911 179.833C486.943 180.404 475.35 181.546 468.725 181.546C460.444 181.546 447.747 182.687 442.226 182.687L444.435 171.271ZM464.861 180.404V190.108H470.933V179.833L464.861 180.404Z" stroke="#2A2D33" stroke-width="7" stroke-linecap="round" stroke-linejoin="round"/>
<path d="M462.984 243C464.539 244.509 469.517 246.622 476.984 243" stroke="#2A2D33" stroke-width="7" stroke-linecap="round" stroke-linejoin="round"/>
<path d="M462.984 251C464.539 251.755 469.517 252.811 476.984 251" stroke="#2A2D33" stroke-width="7" stroke-linecap="round" stroke-linejoin="round"/>
<path d="M462.984 258C464.539 258.755 469.517 259.811 476.984 258" stroke="#2A2D33" stroke-width="7" stroke-linecap="round" stroke-linejoin="round"/>
<path d="M462.984 265C464.539 266.509 469.517 268.622 476.984 265" stroke="#2A2D33" stroke-width="7" stroke-linecap="round" stroke-linejoin="round"/>
<path d="M462.984 273C464.539 273.755 469.517 274.811 476.984 273" stroke="#2A2D33" stroke-width="7" stroke-linecap="round" stroke-linejoin="round"/>
<path d="M382.984 282.224C382.984 278.845 382.984 273.897 389.012 271M567.984 292C566.854 289.828 564.593 284.397 564.593 280.052" stroke="#2A2D33" stroke-width="7" stroke-linecap="round"/>
<path d="M196.561 267.822C202.908 259.187 216.282 237.5 218.996 219.829C222.389 197.74 224.905 184.057 215.971 183.017C207.038 181.976 199.003 207.83 196.38 216.272M184.778 195.888C191.005 187.023 204.15 165.573 206.922 150.697C210.386 132.102 212.959 112.651 208.211 111.175C203.462 109.7 189.374 121.522 183.706 143.482C179.172 161.051 178.715 175.682 179.052 180.801C180.059 164.528 181.259 129.762 178.001 120.881C173.93 109.779 165.923 111.341 163.364 140.054C160.725 124.962 151.227 93.467 134.342 88.2202C113.237 81.6616 135.486 144.119 141.889 149.581M149.427 184.902C145.714 171.405 133.959 141.215 116.641 128.427C94.9932 112.443 88.1697 112.058 90.4947 123.195C92.8196 134.332 123.696 191.371 144.672 200.204M110.397 182.031C93.7554 177.245 58.2476 169.991 49.3498 179.26C38.2276 190.847 101.329 200.042 116.886 200.248C107.054 200.857 89.3035 203.363 96.9585 208.519C106.527 214.965 127.325 215.063 134.769 211.591M130.605 204.511C142.342 220.115 166.199 256.42 167.734 276.8M169.366 245.485C164.826 237.131 156.38 217.265 158.918 204.631C162.09 188.837 163.33 181.123 167.659 187.675C171.987 194.227 185.279 220.344 179.048 240.394C181.075 236.974 185.73 230.436 188.131 231.645C191.133 233.156 194.549 246.368 185.26 270.675M231.849 301.353L232.439 278.972L141.731 278.555L147.052 307.981L158.061 307.93M184.099 307.922L225.332 307.428L215.971 369.274L163.364 369.274L151.109 309.82" stroke="#2A2D33" stroke-width="7" stroke-linecap="round" stroke-linejoin="round"/>
<path d="M458.536 211.721L458 199.692L469.369 217.296L458.536 211.721Z" fill="#2A2D33" stroke="#2A2D33" stroke-linecap="round" stroke-linejoin="round"/>
<path d="M481.196 210.237L480.66 198.208L470.902 216.753L481.196 210.237Z" fill="#2A2D33" stroke="#2A2D33" stroke-linecap="round" stroke-linejoin="round"/>
<path d="M471.118 200.705L464.091 201.326L469.416 209.424L477.145 194.763L468.629 190.37L458.395 196.883L470.73 196.333L471.118 200.705Z" fill="#2A2D33" stroke="#2A2D33" stroke-linecap="round" stroke-linejoin="round"/>
</svg>
