<svg width="413" height="733" viewBox="0 0 413 733" fill="none" xmlns="http://www.w3.org/2000/svg">
<path d="M168.124 53.5682C176.122 50.3741 184.342 38.9283 187.452 33.6047C191.45 33.6047 200.248 34.6695 203.447 38.9283C207.445 44.2519 210.111 53.5682 216.776 56.8955C223.44 60.2227 222.774 53.5682 218.775 38.9283C214.776 24.2884 206.779 13.6412 199.448 13.6412C192.117 13.6412 182.786 8.31763 176.122 4.99039C169.457 1.66315 159.46 12.3103 148.797 4.99039C138.134 -2.32956 128.137 12.3103 116.807 20.2957C105.477 28.2811 114.141 36.932 106.144 46.9137C98.1463 56.8955 97.4799 72.2008 102.812 79.5208C108.143 86.8407 114.141 91.4989 116.807 103.477C119.473 115.455 132.136 113.459 140.133 111.462C146.531 109.865 150.796 102.812 152.129 99.4843L148.797 88.8371C140.8 89.5025 136.134 83.5135 136.134 76.859C136.134 71.5354 144.576 71.5354 148.797 72.2008C150.13 66.2118 158.128 57.5609 168.124 53.5682Z" fill="#2A2D33"/>
<path d="M338.071 363.668L397.386 299.119L404.05 302.447L338.071 363.668Z" fill="#2A2D33"/>
<path d="M246.766 333.057L336.738 362.337C336.516 364.333 335.405 368.725 332.739 370.322C329.407 372.319 304.748 359.675 292.752 363.668C280.756 367.661 276.757 368.992 296.084 376.977C294.751 376.421 287.42 376.977 282.089 375.646L293.418 378.973L289.42 412.911C291.641 416.017 297.684 423.825 304.082 430.213C312.079 438.198 334.072 483.449 298.084 518.718C262.095 553.987 220.108 619.201 214.776 627.186C210.511 633.575 205.002 635.615 202.78 635.837C203.669 639.386 206.112 648.081 208.778 654.47C211.444 660.858 226.773 675.32 234.104 681.753C219.175 676.962 210.111 686.855 207.445 692.4C173.456 673.768 177.455 647.815 176.122 640.495C175.055 634.639 159.238 625.19 151.463 621.197L160.793 612.546C161.238 608.332 163.326 596.576 168.124 583.266C174.122 566.63 228.106 504.078 240.768 483.449C253.431 462.82 238.769 451.507 222.107 444.187C208.778 438.331 179.676 428.882 166.791 424.889C160.793 444.853 141.466 452.838 108.81 444.187C76.1532 435.537 22.1701 388.955 9.50742 364.333C-3.15527 339.712 3.5093 315.756 22.1701 305.108C37.6652 296.267 61.4315 308.532 86.2194 321.33C91.2838 323.944 96.3908 326.581 101.479 329.065C125.471 340.776 157.683 349.915 170.79 353.021L174.789 355.017L246.766 333.057Z" fill="#2A2D33"/>
<path d="M322.743 398.271C321.143 391.883 309.635 391.173 304.082 391.617C316.548 388.955 331.406 391.617 338.071 394.279C344.736 396.94 344.736 406.257 366.062 412.911C387.389 419.566 393.387 424.889 393.387 430.213C393.387 435.537 382.724 446.184 380.058 454.169C377.392 462.155 384.057 464.816 368.062 460.158C355.676 456.551 322.31 436.443 305.678 425.904C305.035 425.573 304.494 425.219 304.082 424.889C304.595 425.217 305.127 425.555 305.678 425.904C308.498 427.354 313.302 428.357 318.077 424.889C325.408 419.566 324.742 406.257 322.743 398.271Z" fill="#2A2D33"/>
<path d="M170.79 60.2227C173.234 56.23 179.987 48.777 187.452 50.9064M199.448 50.9064C202.114 50.9064 207.979 52.1042 210.111 56.8955M210.111 53.5682C210.111 57.1173 210.378 65.014 211.444 68.2081C212.777 72.2008 214.11 71.5354 215.443 80.1862C216.776 88.8371 210.111 121.444 199.448 125.437C188.785 129.43 174.789 122.11 163.459 115.455M188.785 127.433C188.785 130.76 189.584 137.681 192.783 138.746C195.982 139.811 199.448 140.964 200.781 141.408M146.798 108.801C146.798 113.015 145.998 122.243 142.799 125.437C138.8 129.43 126.804 133.422 126.138 137.415C125.471 141.408 124.138 156.713 132.136 170.687C140.133 184.662 158.127 209.284 168.124 205.291C178.121 201.298 198.781 172.018 200.781 157.378M201.447 142.073C201.347 145.622 201.073 153.386 200.781 156.048M204.113 141.408C210.778 141.186 226.639 142.073 236.769 147.397C249.432 154.051 283.422 187.989 301.416 234.571C319.41 281.152 326.075 287.807 310.746 294.461C295.418 301.116 282.755 307.77 275.424 299.119C268.093 290.468 252.764 252.538 240.768 247.88C241.657 256.752 243.567 276.494 244.101 284.479C244.634 292.465 248.321 318.861 250.099 331.061M86.1501 234.571C87.2608 257.196 88.8159 306.306 86.1501 321.745M136.134 125.437C132.136 124.771 122.005 123.84 113.475 125.437C102.812 127.433 98.8128 137.415 94.1476 147.397C89.4824 157.378 60.8247 193.978 56.8259 211.28C52.8272 228.582 34.1664 251.207 35.4993 266.512C36.8322 281.818 42.1638 299.119 48.162 299.119C54.1601 299.119 61.4911 290.468 67.4892 284.479C73.4873 278.49 84.8172 219.265 94.1476 193.978C103.478 168.691 106.81 139.411 122.805 136.084M90.1488 149.393C79.0412 156.269 55.7596 173.083 51.4942 185.327C47.2289 197.572 42.6081 228.138 40.8309 241.891M290.753 305.108L304.082 327.734M318.077 291.799L331.406 317.086M393.387 299.119L286.754 334.388L282.089 342.374M282.089 375.646C287.42 376.977 294.751 376.421 296.084 376.977C276.757 368.992 280.756 367.661 292.752 363.668C304.748 359.675 329.407 372.319 332.739 370.322C335.405 368.725 336.516 364.333 336.738 362.337L246.766 333.057L174.789 355.017M282.089 375.646C277.823 374.581 208.778 361.45 174.789 355.017M282.089 375.646L293.418 378.973L289.42 412.911C291.641 416.017 297.684 423.825 304.082 430.213C312.079 438.198 334.072 483.449 298.084 518.718C262.095 553.987 220.108 619.201 214.776 627.186C210.511 633.575 205.002 635.615 202.78 635.837C203.669 639.386 206.112 648.081 208.778 654.47C211.444 660.858 226.773 675.32 234.104 681.753C219.175 676.962 210.111 686.855 207.445 692.4C173.456 673.768 177.455 647.815 176.122 640.495C175.056 634.639 159.238 625.19 151.463 621.197L160.793 612.546C161.238 608.332 163.326 596.575 168.124 583.266C174.122 566.63 228.106 504.078 240.768 483.449C253.431 462.82 238.769 451.507 222.107 444.187C208.778 438.331 179.676 428.882 166.791 424.889C160.793 444.853 141.466 452.838 108.81 444.187C76.1532 435.537 22.1701 388.955 9.50742 364.333C-3.15527 339.712 3.5093 315.756 22.1701 305.108C40.8309 294.461 71.488 314.425 101.479 329.065C125.471 340.776 157.683 349.915 170.79 353.021L174.789 355.017M292.752 391.617H302.082M312.079 389.621C315.411 387.402 324.475 383.631 334.072 386.293C346.069 389.621 350.734 399.602 357.398 402.264C364.063 404.926 392.721 407.588 401.384 420.897C410.048 434.206 414.714 450.842 401.384 460.158C390.721 467.611 382.724 465.925 380.058 464.151M147.464 623.859L145.465 627.186C152.129 634.506 166.525 651.275 170.79 659.793C176.122 670.44 196.116 706.375 218.109 708.371C240.102 710.367 245.433 697.724 241.435 689.738M63.4905 421.562C62.6019 431.544 64.9567 453.371 81.4849 460.824C98.013 468.277 196.338 467.922 243.434 466.813M73.4874 458.827L23.503 729M95.4805 689.738L134.135 469.475M298.084 523.376L333.406 729M187.452 33.6047C184.342 38.9283 176.122 50.3741 168.124 53.5682C158.128 57.5609 150.13 66.2118 148.797 72.2008C144.576 71.5354 136.134 71.5354 136.134 76.859C136.134 83.5135 140.8 89.5025 148.797 88.8371L152.129 99.4843C150.796 102.812 146.531 109.865 140.133 111.462C132.136 113.459 119.473 115.455 116.807 103.477C114.141 91.4989 108.143 86.8407 102.812 79.5208C97.4799 72.2008 98.1463 56.8955 106.144 46.9137C114.141 36.932 105.477 28.2811 116.807 20.2957C128.137 12.3103 138.134 -2.32956 148.797 4.99039C159.46 12.3103 169.457 1.66315 176.122 4.99039C182.786 8.31763 192.117 13.6412 199.448 13.6412C206.779 13.6412 214.776 24.2884 218.775 38.9283C222.774 53.5682 223.44 60.2227 216.776 56.8955C210.111 53.5682 207.445 44.2519 203.447 38.9283C200.248 34.6695 191.45 33.6047 187.452 33.6047ZM397.386 299.119L338.071 363.668L404.05 302.447L397.386 299.119ZM304.082 391.617C309.636 391.173 321.143 391.883 322.743 398.271C324.742 406.257 325.408 419.566 318.077 424.889C312.212 429.148 306.303 426.664 304.082 424.889C320.077 435.093 355.266 456.432 368.062 460.158C384.057 464.816 377.392 462.155 380.058 454.169C382.724 446.184 393.387 435.537 393.387 430.213C393.387 424.889 387.389 419.566 366.062 412.911C344.736 406.257 344.736 396.94 338.071 394.279C331.406 391.617 316.548 388.955 304.082 391.617Z" stroke="#2A2D33" stroke-width="6" stroke-linecap="round" stroke-linejoin="round"/>
<path d="M73.4873 458.827L23.5029 729M95.4804 689.738L134.135 469.474M298.083 523.376L333.406 729" stroke="#2A2D33" stroke-width="8" stroke-linecap="round" stroke-linejoin="round"/>
<path d="M265.336 690.361L226.698 470.731" stroke="#2A2D33" stroke-width="8" stroke-linecap="round" stroke-linejoin="round"/>
<path d="M233.93 602.916H259.121L314.143 643.588H207.413M155.706 643.588H43.6724L113.942 602.916H155.706" stroke="#2A2D33" stroke-width="4" stroke-linecap="round" stroke-linejoin="round"/>
<path d="M192.157 252.131L192.219 239.809L202.947 258.377L192.157 252.131Z" fill="#2A2D33" stroke="#2A2D33" stroke-width="0.5" stroke-linecap="round" stroke-linejoin="round"/>
<path d="M215.394 251.762L215.455 239.439L204.542 257.9L215.394 251.762Z" fill="#2A2D33" stroke="#2A2D33" stroke-width="0.5" stroke-linecap="round" stroke-linejoin="round"/>
<path d="M205.575 241.508L198.361 241.787L203.394 250.334L212.036 235.74L203.554 230.818L192.764 236.957L205.4 237.02L205.575 241.508Z" fill="#2A2D33" stroke="#2A2D33" stroke-width="0.5" stroke-linecap="round" stroke-linejoin="round"/>
</svg>
