<svg width="2401" height="343" viewBox="0 0 2401 343" fill="none" xmlns="http://www.w3.org/2000/svg">
<rect x="1885.5" y="174.5" width="168" height="4" fill="#2A2D33" stroke="#2A2D33" stroke-width="3"/>
<rect x="1949.5" y="180.5" width="44" height="5" fill="#2A2D33" stroke="#2A2D33" stroke-width="3"/>
<rect x="1961.5" y="187.5" width="21" height="5" fill="#2A2D33" stroke="#2A2D33" stroke-width="3"/>
<rect x="1948" y="167" width="66" height="4" fill="#2A2D33" stroke="#2A2D33" stroke-width="3"/>
<rect x="1914.92" y="112.647" width="65.581" height="3.27905" transform="rotate(58.3612 1914.92 112.647)" fill="#2A2D33" stroke="#2A2D33" stroke-width="3"/>
<rect x="1969.5" y="323.5" width="130" height="5" transform="rotate(-90 1969.5 323.5)" fill="#2A2D33" stroke="#2A2D33" stroke-width="3"/>
<path d="M2116.96 326.259C2117.64 323.889 2114.99 318.909 2113.57 316.715C2118.11 316.402 2123.14 315.73 2127.13 314.899C2129.38 317.84 2134.75 324.82 2138.14 329.222C2141.52 333.623 2142.65 337.827 2142.79 339.379H2077.58C2074.62 339.379 2077.16 335.57 2086.47 335.57C2095.79 335.57 2116.12 329.222 2116.96 326.259Z" stroke="#2A2D33" stroke-width="3" stroke-linecap="round" stroke-linejoin="round"/>
<path d="M1995.43 303.333L1986.11 318.641C1979.34 323.861 1962.91 334.554 1951.39 335.57C1936.99 336.839 1934.45 339.379 1939.95 339.379C1945.46 339.379 1974.26 338.109 1980.18 335.57C1986.11 333.03 1999.66 336.839 2002.63 333.03C2005.59 329.221 2000.93 323.296 2002.63 318.641C2003.98 314.916 2008.27 312.155 2010.25 311.24" stroke="#2A2D33" stroke-width="3" stroke-linecap="round" stroke-linejoin="round"/>
<path d="M2108.92 156.937C2106.74 160.216 2101.71 166.992 2099.09 167.867C2095.81 168.96 2072.31 164.041 2064.11 162.402C2055.91 160.762 2029.68 155.297 2022.58 154.204C2015.47 153.111 2006.73 153.111 2000.72 154.204C1994.7 155.297 1981.59 163.495 1983.23 164.588C1984.87 165.681 2001.81 164.041 2005.63 161.855C2009.46 159.669 2020.39 157.483 2024.22 159.669C2028.04 161.855 2095.81 192.46 2108.92 190.274C2113.3 190.274 2120.95 181.529 2124.23 177.157" stroke="#2A2D33" stroke-width="3" stroke-linecap="round" stroke-linejoin="round"/>
<path d="M2138.98 56.3789C2143.72 58.7471 2154.5 63.4835 2159.75 63.4835" stroke="#2A2D33" stroke-width="3" stroke-linecap="round" stroke-linejoin="round"/>
<path d="M2139.53 81.5182C2138.62 78.4213 2135.59 71.5717 2130.78 68.9485C2124.77 65.6694 2122.04 65.1229 2120.4 67.8554C2118.76 70.588 2118.22 76.5996 2116.03 76.0531C2113.84 75.5066 2112.75 72.774 2111.11 72.774C2109.47 72.774 2108.38 71.1345 2108.92 68.9485C2108.2 69.6771 2106.52 70.9159 2105.65 70.0415C2104.55 68.9485 2106.19 68.402 2104.55 66.7624C2102.91 65.1229 2099.63 68.9485 2098.54 67.8554C2097.45 66.7624 2100.73 59.1113 2098.54 55.2858C2096.79 52.2253 2093.08 46.3595 2091.44 43.8091" stroke="#2A2D33" stroke-width="3" stroke-linecap="round" stroke-linejoin="round"/>
<path d="M1995.08 287.263C1996.83 285.08 2000.91 286.353 2002.73 287.263C2004.91 282.714 2009.94 272.307 2012.57 267.067C2015.84 260.517 2031.15 228.313 2033.88 221.763C2036.07 216.523 2044.63 213.03 2048.64 211.938C2044.27 198.838 2052.46 193.38 2063.94 192.289C2073.12 191.415 2126.43 190.469 2151.94 190.105C2154.67 189.559 2163.3 190.869 2175.98 200.476C2191.83 212.484 2187.46 208.118 2197.3 213.576C2205.17 217.943 2221.71 220.49 2229 221.217C2223.53 232.134 2207.68 244.142 2194.02 251.238C2180.36 258.334 2131.71 249.601 2118.05 249.055C2104.39 248.509 2079.24 241.413 2070.5 251.784C2063.5 260.081 2038.44 288.718 2026.78 302C2028.05 302.91 2030.06 305.93 2027.87 310.734C2025.14 316.738 2020.76 317.283 2015.84 314.008C2010.93 310.734 1996.72 304.184 1992.89 302C1989.83 300.254 1989.79 296.906 1990.16 295.45C1991.07 293.631 1993.33 289.446 1995.08 287.263Z" fill="#2A2D33" stroke="#2A2D33"/>
<path d="M2104.2 309.757L2069.17 253.063C2067.42 243.376 2079.39 237.651 2085.59 236L2108.58 247.559L2123.91 302.051C2124.46 301.867 2126.21 301.611 2128.83 302.051C2132.12 302.601 2134.31 312.509 2132.12 312.509C2129.93 312.509 2108.04 321.866 2106.39 319.665C2104.75 317.463 2102.01 314.711 2101.47 312.509C2101.03 310.748 2103.11 309.94 2104.2 309.757Z" fill="#2A2D33" stroke="#2A2D33"/>
<path d="M2121.67 43.7165L2120.56 45.906C2117.79 45.906 2111.7 34.9587 2105.61 32.2219C2099.52 29.485 2096.2 39.3376 2091.77 43.7165C2087.35 48.0955 2079.6 40.4324 2079.04 33.864C2078.49 27.2956 2083.47 26.2008 2086.24 14.7061C2089.01 3.21145 2092.88 1.56935 2100.63 1.02198C2108.38 0.474614 2111.7 10.3272 2115.02 10.8746C2118.34 11.4219 2118.34 6.49565 2124.43 5.94828C2130.52 5.40092 2137.72 9.77985 2140.49 14.1588C2143.25 18.5377 2138.83 27.2956 2141.04 33.3166L2141.04 33.3167C2143.25 39.3377 2145.47 45.3587 2144.91 49.7376C2144.36 54.1165 2142.7 56.8533 2137.72 55.7586C2133.73 54.8828 2130.15 49.92 2128.86 47.5481C2129.6 46.2709 2130.85 43.1692 2129.97 40.9797C2128.86 38.2429 2122.77 33.864 2120.56 36.0534C2118.79 37.805 2120.56 41.892 2121.67 43.7165Z" fill="#2A2D33" stroke="#2A2D33"/>
<path d="M2155.38 189.856C2155.75 184.938 2156.48 173.901 2156.48 169.093C2156.48 164.285 2153.55 156.89 2152.09 153.794L2126.85 181.113C2120.7 177.616 2110.39 160.351 2106 152.155L2110.39 140.68C2112.4 135.763 2117.08 124.507 2119.72 118.825C2123.01 111.722 2135.08 89.866 2136.73 85.4948C2138.37 81.1237 2143.86 81.1237 2149.89 78.9381C2155.93 76.7526 2156.48 71.2887 2158.12 67.4639C2159.44 64.4041 2161.23 62.5464 2161.96 62C2169.1 69.2852 2184.46 85.932 2188.85 94.2371C2194.34 104.619 2216.83 159.258 2219.03 168.546C2221.22 177.835 2229.45 198.598 2230 221" stroke="#2A2D33" stroke-width="3" stroke-linecap="round" stroke-linejoin="round"/>
<path d="M1808.21 317.106C1807.33 315.357 1805.66 311.276 1804.93 309.454C1800.01 309.454 1796.73 303.989 1796.73 293.059C1796.73 282.129 1794 265.734 1785.25 256.99C1776.51 248.246 1771.04 235.129 1780.33 236.222C1789.62 237.315 1800.55 259.176 1802.74 265.734C1804.45 270.865 1803.51 288.264 1802.79 296.865C1803.14 294.685 1805.53 290.833 1813.12 289.234C1823.51 287.048 1829.52 294.152 1841 288.141C1850.18 283.331 1852.47 273.021 1852.47 268.466C1850.29 269.341 1845.73 268.831 1843.73 268.466C1848.1 267.373 1857.39 255.35 1863.4 252.618C1869.41 249.885 1873.79 248.792 1878.71 250.432C1883.62 252.071 1889.64 258.083 1890.73 266.28C1891.82 274.478 1887.45 277.21 1885.81 279.397C1884.17 281.583 1886.9 291.42 1885.81 300.71C1884.72 310.001 1880.89 316.013 1878.71 319.838C1876.52 323.664 1868.87 336.233 1872.69 335.687C1876.52 335.14 1878.16 339.512 1875.43 339.512H1865.59L1868.87 326.943C1865.81 327.817 1861.04 331.679 1859.03 333.501C1858.67 334.412 1858.16 336.561 1859.03 337.873C1860.12 339.512 1855.21 339.512 1852.47 338.966C1850.29 338.529 1851.56 334.412 1852.47 332.408C1843.73 334.594 1831.16 331.861 1829.52 332.408C1828.21 332.845 1828.97 335.505 1829.52 336.78C1830.25 336.416 1831.92 336.124 1832.8 337.873C1833.89 340.059 1831.71 339.512 1829.52 339.512C1827.33 339.512 1826.24 336.78 1824.6 335.14C1822.96 333.501 1825.69 331.315 1821.32 329.675C1816.95 328.036 1816.95 328.036 1816.4 330.222C1815.86 332.408 1818.04 335.687 1820.23 335.687C1822.42 335.687 1826.79 340.059 1819.14 340.059C1811.48 340.059 1812.58 335.687 1811.48 334.047C1810.39 332.408 1805.47 327.489 1807.11 324.757C1808.75 322.024 1809.3 319.292 1808.21 317.106Z" fill="#2A2D33" stroke="#2A2D33"/>
<path d="M1862.14 262.177C1862.93 259.685 1866.08 255.438 1872.46 258.389C1871.16 260.393 1867.28 263.957 1862.14 262.177Z" fill="white" stroke="white"/>
<path d="M1878.41 256.582C1879.19 254.089 1882.35 249.842 1888.73 252.794C1887.43 254.798 1883.54 258.362 1878.41 256.582Z" fill="white" stroke="#2A2D33"/>
<path d="M1884.74 255.786C1883.4 255.464 1883.3 253.26 1883.42 252.198L1884.32 251.869L1886.89 251.942L1888.28 252.959L1886.08 255.292L1884.74 255.786Z" fill="#2A2D33"/>
<path d="M1869.55 262.39C1867.82 261.44 1867.75 258.43 1867.93 257.044C1870.52 256.568 1872.61 257.638 1873.32 258.232C1871.17 261.796 1869.42 262.313 1869.55 262.39Z" fill="#2A2D33" stroke="white" stroke-width="0.5"/>
<path d="M2400.5 339.5L0.499942 339.5" stroke="#2A2D33" stroke-width="7"/>
<path d="M2166.47 261.945C2169.34 262.031 2172.97 261.95 2177.08 261.617M2254.81 176C2254.24 190.113 2248.69 222.825 2231.02 240.777C2227.55 244.301 2223.51 247.273 2219.13 249.772M2155 339L2177.08 261.617M2177.08 261.617C2189.29 260.628 2205.74 257.421 2219.13 249.772M2265 339L2219.13 249.772" stroke="#2A2D33" stroke-width="7"/>
</svg>
